<svg xmlns="http://www.w3.org/2000/svg" width="161" height="60">
    <g transform="matrix(1.00563 0 0 1 45.3208 -2)">
        <path d="M59.345 29.346c0 15.106-12.237 27.346-27.345 27.346-15.108 0-27.347-12.24-27.347-27.346S16.893 2 32 2c15.107 0 27.345 12.24 27.345 27.346z" fill="#ffdd67"/>
        <path d="M48.04 10.664c-3.339-1.939-7.368-2.293-10.993-.961-.501.193-1.297-1.643-.688-1.875 4.18-1.536 8.832-1.131 12.684 1.109.561.336-.545 2.01-1 1.727M24.93 14.01a12.9822 12.9822 0 0 0-10.994-.962c-.499.195-1.297-1.641-.687-1.874a14.97 14.97 0 0 1 12.685 1.11c.559.334-.544 2-1 1.726" fill="#917524"/>
        <path d="M39.605 37.776H24.393c-.796 0-.796-2.735 0-2.735h15.213c.796 0 .796 2.735-.001 2.735" fill="#664e27"/>
        <circle cx="21.444" cy="21.17" r="7.342" fill="#fff"/>
        <circle cx="23.447" cy="18.17" r="3.671" fill="#664e27"/>
        <circle cx="42.554" cy="21.17" r="7.342" fill="#fff"/>
        <circle cx="44.557" cy="18.17" r="3.672" fill="#664e27"/>
        <path d="M40.949 40.836c-4.258 1.83-15.238 5.086-17.66 3.396-1.087-.761-1.145-2.177-1.251-4.604-.106-2.395-2.852-4.567-4.583-4.484-2.073.098-2.986 1.763-1.908 3.75 2.369 4.357-.375 6.367.076 9.835.26 2.01.199 5.417 3.965 9.138 4.258 4.208 10.295 3.221 12.358 2.79 2.434-.507 3.447-.776 3.832-1.973.426-1.324.086-1.573.273-2.058.41-1.059.722-.991.799-2.121.084-1.23-.877-1.747-.768-2.357.222-1.271 1.311-1.285-.244-3.973 3.498-1.156 5.748-2.113 7.662-3.668 3.468-2.812-.292-4.644-2.551-3.671" fill="#fff"/>
        <path d="M28.1 62c-3.729 0-6.923-1.21-9.238-3.498-3.587-3.544-3.928-6.812-4.152-8.974-.025-.244-.05-.474-.077-.688-.195-1.502.132-2.721.446-3.902.467-1.744.869-3.25-.422-5.627-.702-1.293-.747-2.604-.124-3.598.559-.89 1.606-1.434 2.874-1.493.018-.001.132-.004.148-.004 2.313 0 5.357 2.531 5.484 5.374.102 2.314.18 3.431.854 3.902.122.085.532.285 1.685.285 4.101 0 11.796-2.425 14.952-3.782.53-.229 1.143-.349 1.769-.349 1.607 0 2.994.752 3.449 1.873.273.674.431 2.049-1.586 3.686-1.875 1.522-4.01 2.481-6.939 3.49.688 1.502.463 2.214.075 2.999-.093.189-.169.344-.212.534.031.065.101.177.153.262.271.437.678 1.097.611 2.074-.058.847-.237 1.209-.505 1.666-.109.188-.223.38-.351.709-.007.028-.001.12.003.188.018.346.047.869-.26 1.822-.572 1.779-2.25 2.129-4.57 2.611-1.417.296-2.747.44-4.067.44M17.555 36.069c-.463.021-1.018.136-1.293.575-.277.441-.211 1.109.182 1.833 1.623 2.989 1.067 5.069.576 6.905-.284 1.065-.553 2.072-.402 3.236.029.228.055.471.082.731.211 2.026.5 4.802 3.621 7.884 1.955 1.934 4.572 2.913 7.779 2.914 1.17 0 2.357-.129 3.629-.396 2.429-.506 2.891-.704 3.094-1.333.208-.647.191-.941.178-1.2-.014-.24-.029-.539.112-.905.18-.464.351-.755.476-.969.169-.287.232-.396.267-.899.028-.421-.139-.691-.351-1.034-.228-.368-.511-.826-.405-1.416.081-.467.247-.803.381-1.073.227-.458.376-.761-.521-2.31a.8663.8663 0 0 1-.051-.771c.104-.251.322-.449.597-.539 3.245-1.073 5.487-1.989 7.339-3.491.799-.649 1.186-1.262 1.031-1.641-.224-.552-1.65-.863-2.502-.496-3.106 1.336-11.188 3.954-15.795 3.954-1.309 0-2.254-.216-2.889-.658-1.46-1.021-1.534-2.711-1.646-5.269-.084-1.854-2.268-3.632-3.489-3.632" fill="#a5b3b2"/>
    </g>
    <text x="5.2963" y="1022.7928" transform="matrix(.9719 0 0 1.02891 0 -992.3622)" style="line-height:125%" font-size="96.5465" font-weight="400" letter-spacing="0" word-spacing="0" fill="#d35f32" fill-opacity=".6218" font-family="Sans">
        <tspan x="5.2963" y="1022.7928" style="-inkscape-font-specification:TlwgMono Medium" font-weight="500" font-family="TlwgMono">4</tspan>
    </text>
    <text x="97.8982" y="1022.7928" transform="matrix(.9719 0 0 1.02891 0 -992.3622)" style="line-height:125%" font-size="96.5465" font-weight="400" letter-spacing="0" word-spacing="0" fill="#d35f32" fill-opacity=".6218" font-family="Sans">
        <tspan x="97.8982" y="1022.7928" style="-inkscape-font-specification:TlwgMono Medium" font-weight="500" font-family="TlwgMono">4</tspan>
    </text>
    <text style="line-height:125%" x="232.1056" y="626.8735" transform="matrix(.59255 0 0 1.68763 0 -992.3622)" font-size="75.0059" font-weight="400" letter-spacing="0" word-spacing="0" fill="#d45f32" fill-opacity=".6235" font-family="Sans">
        <tspan x="232.1056" y="626.8735" style="-inkscape-font-specification:TlwgMono Medium" font-weight="500" font-family="TlwgMono">&gt;</tspan>
    </text>
    <text style="line-height:125%" x="-5.4004" y="626.8735" transform="matrix(.59255 0 0 1.68763 0 -992.3622)" font-size="75.0059" font-weight="400" letter-spacing="0" word-spacing="0" fill="#d45f32" fill-opacity=".6235" font-family="Sans">
        <tspan x="-5.4004" y="626.8735" style="-inkscape-font-specification:TlwgMono Medium" font-weight="500" font-family="TlwgMono">&lt;</tspan>
    </text>
</svg>
