<svg xmlns="http://www.w3.org/2000/svg" width="67.2" height="48">
    <path fill="#fff" stroke="#000" stroke-width="2.2749" stroke-linecap="round" stroke-linejoin="round" d="M1.1374 1.1374h64.9252v45.7252H1.1374z"/>
    <path d="M63.1872 8.1504c.0192-.1536.0346-.3072.0346-.4704s-.0154-.3168-.0346-.4704l1.0406-.791c.096-.073.119-.2016.0576-.3072l-.985-1.6608c-.0767-.1056-.192-.144-.3071-.1056l-1.2288.48c-.2688-.192-.5376-.3514-.8448-.4704l-.192-1.273c-.0192-.1152-.1152-.2016-.2458-.2016h-1.9603c-.1248 0-.2304.0864-.242.2016l-.1842 1.273c-.2976.119-.576.2822-.8295.4704l-1.2288-.48c-.1152-.0442-.2438 0-.3033.1056l-.9888 1.6608c-.0653.1056-.0346.2342.0576.3072l1.0425.791a3.82 3.82 0 0 0-.0307.4704c0 .1594.0154.3168.0346.4704l-1.0368.793c-.096.071-.121.2016-.0615.3072l.9888 1.6608c.0576.1056.192.144.3072.1056l1.2288-.48c.263.192.5376.3494.841.4704l.1881 1.271c.0192.1152.121.2016.2458.2016h1.9776c.1152 0 .2208-.0864.2362-.2016l.1862-1.271c.3072-.121.576-.2842.8371-.4704l1.2288.48c.1152.0422.2362 0 .2957-.1056l.9792-1.6608c.0576-.1056.0384-.2362-.0576-.3072l-1.0368-.793zM59.52 9.36c-.9504 0-1.728-.7526-1.728-1.68 0-.9254.7776-1.68 1.728-1.68.9542 0 1.728.7546 1.728 1.68 0 .9274-.7738 1.68-1.728 1.68z"/>
    <path d="M57.1584 14.5037c.0192-.1536.0346-.3072.0346-.4704a3.444 3.444 0 0 0-.0346-.48l1.0426-.7872c.0921-.0768.1152-.2112.0576-.3072l-.987-1.6704c-.0575-.1152-.192-.1536-.3071-.1152l-1.2288.48c-.2688-.192-.5376-.3456-.8448-.4685l-.192-1.273c-.0192-.1152-.1152-.2016-.2458-.2016h-1.9603c-.1248 0-.2304.0768-.242.192l-.1842 1.275c-.2976.1228-.576.288-.8295.4742l-1.2288-.48c-.1152-.0384-.2438 0-.3033.1075l-.9888 1.6646a.234.234 0 0 0 .0576.3072l1.0425.793a3.8512 3.8512 0 0 0-.0307.4723c0 .1536.0154.313.0346.4666l-1.0368.7872a.2361.2361 0 0 0-.0615.3072l.9888 1.6627c.0576.1037.192.142.3072.1037l1.2288-.48c.263.192.5376.3494.841.4704l.1881 1.2672c.0192.1152.121.2016.2458.2016h1.9776c.1152 0 .2208-.0845.2362-.1997l.1862-1.271c.3072-.1249.576-.288.8371-.4743l1.2288.48c.1152.0442.2381 0 .2957-.1037l.9792-1.6627c.0576-.1037.0384-.2342-.0576-.3072l-1.0368-.791zm-3.6672 1.2096c-.9504 0-1.728-.7527-1.728-1.68 0-.9274.7776-1.6896 1.728-1.6896.9542 0 1.728.7488 1.728 1.6704 0 .9216-.7738 1.6704-1.728 1.6704z"/>
</svg>
